#!OML:ASF E:\acrobat2\Project_11_07_03\Capture day 1\Session 1\Acrobat.ASF
:FULLY-SPECIFIED
:DEGREES
163
root 7.05669 18.1315 -19.2569 4.94503 -0.149649 1.12645
lowerback -2.46772 -0.765498 3.18338
upperback 0.421499 -1.14543 1.46764
thorax 1.78423 -0.546315 -0.323176
lowerneck 8.30224 -11.8848 -8.35597
upperneck -4.72185 -16.2206 10.199
head -1.20027 -8.31928 4.70144
rclavicle -2.71341e-014 1.43125e-014
rhumerus -36.5339 3.06183 -73.5768
rradius 33.3847
rwrist -2.33757
rhand -0.663439 -45.0645
rfingers 7.12502
rthumb 24.9548 -73.455
lclavicle -2.71341e-014 1.43125e-014
lhumerus -36.2531 2.20485 78.9594
lradius 23.4956
lwrist 8.89786
lhand -5.29793 -13.0766
lfingers 7.12502
lthumb 20.5071 15.8603
rfemur 4.67825 7.62598 18.765
rtibia -0.852324
rfoot -26.6297 -31.5493
rtoes 10.1569
lfemur -5.3355 0.556037 -11.6739
ltibia 12.5581
lfoot -11.1877 -1.60845
ltoes 21.5993
164
root 7.05553 18.1251 -19.2446 4.91655 -0.170777 1.01351
lowerback -2.66981 -0.802957 3.03459
upperback 0.291456 -1.19635 1.50733
thorax 1.76637 -0.574679 -0.203445
lowerneck 8.23391 -11.8466 -8.37268
upperneck -4.54653 -16.1692 10.3936
head -1.12431 -8.2987 4.74673
rclavicle -1.85864e-014 5.56597e-015
rhumerus -36.7453 3.01031 -73.5585
rradius 33.2099
rwrist -2.17214
rhand -0.656087 -45.0841
rfingers 7.12502
rthumb 24.9618 -73.4737
lclavicle -1.85864e-014 5.56597e-015
lhumerus -36.3786 2.71722 78.7522
lradius 23.168
lwrist 9.08418
lhand -5.57692 -13.0032
lfingers 7.12502
lthumb 20.239 15.9624
rfemur 4.67774 7.36273 18.8397
rtibia -0.73502
rfoot -26.4263 -31.3103
rtoes 9.87989
lfemur -4.36402 0.0686206 -11.5892
ltibia 10.9666
lfoot -11.3059 -1.11515
ltoes 21.4207
165
root 7.05422 18.121 -19.2321 4.86628 -0.175866 0.93418
lowerback -2.87431 -0.840617 2.84552
upperback 0.195534 -1.2466 1.53489
thorax 1.78584 -0.602184 -0.0741335
lowerneck 8.14084 -11.832 -8.37877
upperneck -4.38774 -16.147 10.5802
head -1.04821 -8.29172 4.78694
rclavicle 5.76476e-015 -3.57812e-014
rhumerus -36.9353 2.87751 -73.5178
rradius 33.0485
rwrist -2.03694
rhand -0.640055 -45.1135
rfingers 7.12502
rthumb 24.9772 -73.5009
lclavicle 5.76476e-015 -3.57812e-014
lhumerus -36.4437 3.15131 78.5958
lradius 22.8277
lwrist 9.24745
lhand -5.88 -13.0097
lfingers 7.12502
lthumb 19.9477 15.9865
rfemur 4.70795 7.14573 18.8912
rtibia -0.627204
rfoot -26.2314 -31.1361
rtoes 9.60408
lfemur -3.43372 -0.49528 -11.5596
ltibia 9.48215
lfoot -11.3983 -0.522775
ltoes 20.8227
166
root 7.05255 18.1194 -19.2202 4.79582 -0.16414 0.886529
lowerback -3.07144 -0.880278 2.62091
upperback 0.123294 -1.29772 1.54992
thorax 1.82633 -0.629938 0.0618796
lowerneck 8.03163 -11.8362 -8.3897
upperneck -4.22486 -16.1511 10.7581
head -0.96624 -8.29675 4.82356
rclavicle -5.01931e-015 1.19271e-014
rhumerus -37.1266 2.66267 -73.4547
rradius 32.9036
rwrist -1.92188
rhand -0.624762 -45.1241
rfingers 7.12502
rthumb 24.9918 -73.5095
lclavicle -5.01931e-015 1.19271e-014
lhumerus -36.4632 3.49379 78.492
lradius 22.4774
lwrist 9.37177
lhand -6.21091 -13.07
lfingers 7.12502
lthumb 19.6296 15.959
rfemur 4.76248 7.00215 18.9279
rtibia -0.524706
rfoot -26.0775 -31.0461
rtoes 9.38348
lfemur -2.55112 -1.12609 -11.5772
ltibia 8.1035
lfoot -11.4788 0.136661
ltoes 20.3018
167
root 7.05024 18.1202 -19.2096 4.71991 -0.138815 0.861765
lowerback -3.26113 -0.920427 2.37244
upperback 0.0619644 -1.34754 1.55288
thorax 1.87455 -0.657058 0.198757
lowerneck 7.90829 -11.8497 -8.4164
upperneck -4.03929 -16.1705 10.9338
head -0.872782 -8.30837 4.85939
rclavicle 4.37326e-015 -2.62396e-014
rhumerus -37.3349 2.36757 -73.374
rradius 32.7716
rwrist -1.8231
rhand -0.631538 -45.0887
rfingers 7.12502
rthumb 24.9853 -73.475
lclavicle 4.37326e-015 -2.62396e-014
lhumerus -36.4424 3.75073 78.4319
lradius 22.1184
lwrist 9.44164
lhand -6.54513 -13.1351
lfingers 7.12502
lthumb 19.3082 15.9264
rfemur 4.81525 6.92944 18.9583
rtibia -0.412172
rfoot -26.0025 -31.0244
rtoes 9.25709
lfemur -1.74087 -1.75934 -11.6189
ltibia 6.83995
lfoot -11.5483 0.813141
ltoes 20.0045
168
root 7.04723 18.1232 -19.2009 4.65646 -0.105586 0.862118
lowerback -3.44959 -0.95773 2.10516
upperback -0.0015634 -1.39147 1.53965
thorax 1.92033 -0.681374 0.329701
lowerneck 7.7775 -11.8643 -8.46733
upperneck -3.82351 -16.1961 11.1176
head -0.765984 -8.32233 4.89882
rclavicle -1.64494e-014 -1.82882e-014
rhumerus -37.5659 1.9929 -73.2833
rradius 32.6356
rwrist -1.7438
rhand -0.691176 -44.9943
rfingers 7.12502
rthumb 24.9282 -73.3885
lclavicle -1.64494e-014 -1.82882e-014
lhumerus -36.3887 3.93399 78.3991
lradius 21.7599
lwrist 9.45065
lhand -6.82884 -13.1876
lfingers 7.12502
lthumb 19.0354 15.9009
rfemur 4.84402 6.9052 18.9708
rtibia -0.288619
rfoot -26.022 -31.0469
rtoes 9.1924
lfemur -1.025 -2.31812 -11.6744
ltibia 5.69873
lfoot -11.5899 1.44954
ltoes 19.8589
169
root 7.04375 18.1277 -19.1935 4.61318 -0.0587199 0.898814
lowerback -3.63434 -0.992031 1.81247
upperback -0.0784588 -1.42852 1.50776
thorax 1.95083 -0.702545 0.456145
lowerneck 7.63079 -11.8781 -8.54343
upperneck -3.56731 -16.2256 11.302
head -0.642282 -8.33684 4.93885
rclavicle -2.89729e-014 2.78299e-014
rhumerus -37.8328 1.54623 -73.184
rradius 32.4893
rwrist -1.6847
rhand -0.823179 -44.8621
rfingers 7.12502
rthumb 24.8017 -73.2738
lclavicle -2.89729e-014 2.78299e-014
lhumerus -36.3234 4.05328 78.3808
lradius 21.4353
lwrist 9.40489
lhand -6.97494 -13.2092
lfingers 7.12502
lthumb 18.8949 15.8931
rfemur 4.84903 6.8969 18.9444
rtibia -0.165202
rfoot -26.1379 -31.0911
rtoes 9.16634
lfemur -0.410839 -2.76235 -11.7507
ltibia 4.68452
lfoot -11.591 1.98134
ltoes 19.837
